<svg version="1.1" id="Layer_1" xmlns="http://www.w3.org/2000/svg" xmlns:xlink="http://www.w3.org/1999/xlink" x="0px" y="0px"
	 viewBox="0 0 256 256" style="enable-background:new 0 0 256 256;" xml:space="preserve">
<style type="text/css">
	.st0{fill:#1D1D1B;}
</style>
<g transform="translate(1.4065934065934016 1.4065934065934016) scale(2.81 2.81)">
	<path class="st0" d="M75.6,78.8H14.5c-8,0-14.5-6.5-14.5-14.5V25.8c0-8,6.5-14.5,14.5-14.5h61.1c8,0,14.5,6.5,14.5,14.5v38.6
		C90,72.3,83.6,78.8,75.6,78.8z M14.5,15.5c-5.6,0-10.2,4.6-10.2,10.2v38.6c0,5.6,4.6,10.2,10.2,10.2h61.1c5.6,0,10.2-4.6,10.2-10.2
		V25.8c0-5.6-4.6-10.2-10.2-10.2H14.5z"/>
	<path class="st0" d="M11.1,26C21.9,36.5,32.7,47,43.5,57.5c2,2,5.1-1.1,3.1-3.1C35.8,43.9,25,33.4,14.2,22.9
		C12.2,20.9,9.1,24,11.1,26L11.1,26z"/>
	<path class="st0" d="M46.6,57.5C57.4,47,68.2,36.5,79,26c2-2-1.1-5-3.1-3.1C65.1,33.4,54.3,43.9,43.5,54.5
		C41.5,56.4,44.6,59.5,46.6,57.5L46.6,57.5z"/>
	<path class="st0" d="M78.9,65c-7.2-6.8-14.4-13.6-21.6-20.4c-2-1.9-5.1,1.1-3.1,3.1c7.2,6.8,14.4,13.6,21.6,20.4
		C77.8,70,80.9,66.9,78.9,65L78.9,65z"/>
	<path class="st0" d="M14.5,68.1c7.2-6.8,14.4-13.6,21.6-20.4c2-1.9-1-5-3.1-3.1C25.8,51.4,18.6,58.2,11.4,65
		C9.4,66.9,12.5,70,14.5,68.1L14.5,68.1z"/>
</g>
</svg>
